<?xml version="1.0" standalone="no"?><!DOCTYPE svg PUBLIC "-//W3C//DTD SVG 1.1//EN" "http://www.w3.org/Graphics/SVG/1.1/DTD/svg11.dtd"><svg t="1639810835716" class="icon" viewBox="0 0 1024 1024" version="1.1" xmlns="http://www.w3.org/2000/svg" p-id="70339" xmlns:xlink="http://www.w3.org/1999/xlink" width="200" height="200"><defs><style type="text/css"></style></defs><path d="M502.9376 910.4896c-220.5696 0-400.0256-179.456-400.0256-400.0256s179.456-400.0256 400.0256-400.0256 400.0256 179.456 400.0256 400.0256-179.456 400.0256-400.0256 400.0256z m0-748.8c-192.3584 0-348.8256 156.4672-348.8256 348.8256s156.4672 348.8256 348.8256 348.8256 348.8256-156.4672 348.8256-348.8256-156.4672-348.8256-348.8256-348.8256z" fill="#606D87" p-id="70340"></path><path d="M372.9408 666.112c-6.5536 0-13.1072-2.5088-18.1248-7.4752a25.61536 25.61536 0 0 1 0-36.1984l260.0448-260.0448a25.61536 25.61536 0 0 1 36.1984 0 25.61536 25.61536 0 0 1 0 36.1984l-260.0448 260.0448c-4.9664 4.9664-11.52 7.4752-18.0736 7.4752z" fill="#FFAF50" p-id="70341"></path><path d="M632.9856 666.112c-6.5536 0-13.1072-2.5088-18.1248-7.4752L354.816 398.5408a25.61536 25.61536 0 0 1 0-36.1984 25.61536 25.61536 0 0 1 36.1984 0l260.0448 260.0448a25.61536 25.61536 0 0 1 0 36.1984 25.344 25.344 0 0 1-18.0736 7.5264z" fill="#FFAF50" p-id="70342"></path></svg>