<?xml version="1.0" standalone="no"?><!DOCTYPE svg PUBLIC "-//W3C//DTD SVG 1.1//EN" "http://www.w3.org/Graphics/SVG/1.1/DTD/svg11.dtd"><svg class="icon" width="200px" height="200.00px" viewBox="0 0 1024 1024" version="1.1" xmlns="http://www.w3.org/2000/svg"><path d="M514.730667 0c138.376533 0 268.0832 54.8864 363.997866 150.7328 23.825067 23.893333 45.2608 49.9712 64.034134 77.960533a34.133333 34.133333 0 0 1-56.7296 38.024534 448.853333 448.853333 0 0 0-55.637334-67.652267A446.464 446.464 0 0 0 68.266667 514.730667C68.266667 760.149333 266.922667 955.733333 514.730667 955.733333 760.763733 955.733333 955.733333 759.125333 955.733333 512a34.133333 34.133333 0 1 1 68.266667 0c0 284.740267-225.416533 512-509.269333 512C229.512533 1024 0 798.037333 0 514.730667A514.730667 514.730667 0 0 1 514.730667 0z" fill="#666666" /><path d="M520.192 275.592533c18.705067-15.428267 148.821333 43.963733 159.266133 68.266667 10.376533 24.1664-126.839467 123.835733-120.558933 140.288 6.212267 16.452267 55.0912 21.026133 70.8608 41.096533 15.7696 20.002133-203.298133 242.756267-218.658133 233.2672-15.291733-9.557333 90.453333-201.5232 68.334933-208.554666-22.1184-6.9632-75.776-18.295467-68.266667-44.782934 7.509333-26.555733 90.3168-214.084267 109.021867-229.5808z" fill="#666666" /><path d="M933.614933 87.995733c30.242133-8.738133 74.5472 163.362133 38.229334 198.519467-36.386133 35.089067-215.2448-7.645867-203.025067-39.389867 12.151467-31.744 134.5536-150.391467 164.795733-159.1296z" fill="#F6B34B" /></svg>