<?xml version="1.0" standalone="no"?><!DOCTYPE svg PUBLIC "-//W3C//DTD SVG 1.1//EN" "http://www.w3.org/Graphics/SVG/1.1/DTD/svg11.dtd"><svg class="icon" width="200px" height="200.00px" viewBox="0 0 1024 1024" version="1.1" xmlns="http://www.w3.org/2000/svg"><path d="M154.1 386.3h122.5l172.5-167c22.3-22.3 55.7-22.3 77.9 0 11.1 11.1 16.7 22.3 16.7 39V904c0 33.4-22.3 55.7-55.7 55.7-16.7 0-27.8-5.6-39-16.7L282 776H154c-33.4 0-55.7-22.3-55.7-55.7V441.9c0.2-33.4 22.4-55.6 55.8-55.6z" fill="#FFF433" /><path d="M805.6 454.1L922.5 571c11.1 11.1 11.1 27.8 0 39-11.1 11.1-27.8 11.1-39 0L766.6 493 649.8 609.9c-11.1 11.1-27.8 11.1-39 0-11.1-11.1-11.1-27.8 0-39L727.7 454 610.8 337.2c-11.1-11.1-11.1-27.8 0-39 11.1-11.1 27.8-11.1 39 0l116.9 116.9 122.5-122.5c11.1-11.1 27.8-11.1 39 0 11.1 11.1 11.1 27.8 0 39L805.6 454.1z m-662.4-206h122.5l172.5-167c22.3-22.3 55.7-22.3 77.9 0 11.1 11.1 16.7 22.3 16.7 39v645.7c0 33.4-22.3 55.7-55.7 55.7-16.7 0-27.8-5.6-39-16.7l-167-167h-128c-33.4 0-55.7-22.3-55.7-55.7V303.8c0.2-33.4 22.5-55.7 55.8-55.7z m0 55.7v278.3h128c16.7 0 27.8 5.6 39 16.7l167 167V120.1l-172.6 167c-11.1 11.1-22.3 16.7-39 16.7H143.2z m0 0" fill="#76569A" /></svg>