<?xml version="1.0" standalone="no"?><!DOCTYPE svg PUBLIC "-//W3C//DTD SVG 1.1//EN" "http://www.w3.org/Graphics/SVG/1.1/DTD/svg11.dtd"><svg class="icon" width="200px" height="200.00px" viewBox="0 0 1024 1024" version="1.1" xmlns="http://www.w3.org/2000/svg"><path d="M855.8 634.9c62.7 0 104.6-41.8 104.6-104.6 0-62.7-41.8-104.6-104.6-104.6-31.4 0-52.3 10.5-73.2 31.4-20.9 20.9-31.4 41.8-31.4 73.2 0 62.7 41.8 104.6 104.6 104.6zM168.8 754c62.7 0 104.6-41.8 104.6-104.6 0-62.7-41.8-104.6-104.6-104.6-31.4 0-52.3 10.5-73.2 31.4-20.9 20.9-31.4 41.8-31.4 73.2C64.2 712.2 106 754 168.8 754zM582.5 425.9c62.7 0 104.6-41.8 104.6-104.6 0-62.7-41.8-104.6-104.6-104.6-31.4 0-52.3 10.5-73.2 31.4-20.9 20.9-31.4 41.8-31.4 73.2 0 62.7 41.9 104.6 104.6 104.6z" fill="#FFF433" /><path d="M534.8 280.6c44.6 9.9 74.3 49.5 74.3 94.1 0 44.6-29.7 84.2-74.3 94.1v326.8c0 14.9-9.9 24.8-24.8 24.8s-24.8-9.9-24.8-24.8V468.8c-44.6-9.9-74.3-49.5-74.3-94.1 0-24.8 9.9-49.5 29.7-69.3 14.9-14.9 29.7-19.8 44.6-24.8v-79.2c0-14.9 9.9-24.8 24.8-24.8s24.8 9.9 24.8 24.8v79.2z m247.6 148.5c44.6 9.9 74.3 49.5 74.3 94.1 0 44.6-29.7 84.2-74.3 94.1v178.3c0 14.9-9.9 24.8-24.8 24.8s-24.8-9.9-24.8-24.8V617.3c-44.6-9.9-74.3-49.5-74.3-94.1 0-24.8 9.9-49.5 29.7-69.3 14.9-14.9 29.7-19.8 44.6-24.8V201.4c0-14.9 9.9-24.8 24.8-24.8s24.8 9.9 24.8 24.8v227.7z m-495.2 99.1c44.6 9.9 74.3 49.5 74.3 94.1 0 44.6-29.7 84.2-74.3 94.1v79.2c0 14.9-9.9 24.8-24.8 24.8s-24.8-9.9-24.8-24.8v-79.2c-44.6-9.9-74.3-49.5-74.3-94.1 0-24.8 9.9-49.5 29.7-69.3 14.9-14.9 29.7-19.8 44.6-24.8V201.4c0-14.9 9.9-24.8 24.8-24.8s24.8 9.9 24.8 24.8v326.8z m-24.8 143.6c29.7 0 49.5-19.8 49.5-49.5s-19.8-49.5-49.5-49.5c-14.9 0-24.8 5-34.7 14.9-9.9 9.9-14.9 19.8-14.9 34.7 0.1 29.6 19.9 49.4 49.6 49.4z m495.2-99c29.7 0 49.5-19.8 49.5-49.5s-19.8-49.5-49.5-49.5c-14.9 0-24.8 5-34.7 14.9-9.9 9.9-14.9 19.8-14.9 34.7 0.1 29.5 19.9 49.4 49.6 49.4zM510 424.2c29.7 0 49.5-19.8 49.5-49.5s-19.8-49.5-49.5-49.5c-14.9 0-24.8 5-34.7 14.9-9.9 9.9-14.9 19.8-14.9 34.7 0.1 29.6 19.9 49.4 49.6 49.4z m0 0" fill="#76569A" /></svg>