<?xml version="1.0" standalone="no"?><!DOCTYPE svg PUBLIC "-//W3C//DTD SVG 1.1//EN" "http://www.w3.org/Graphics/SVG/1.1/DTD/svg11.dtd"><svg class="icon" width="200px" height="200.00px" viewBox="0 0 1024 1024" version="1.1" xmlns="http://www.w3.org/2000/svg"><path d="M512 505.6m-272 0a272 272 0 1 0 544 0 272 272 0 1 0-544 0Z" fill="#FFF100" /><path d="M512 1003.2c-273.6 0-496-222.4-496-496S238.4 11.2 512 11.2s496 222.4 496 496-222.4 496-496 496z m0-929.6c-238.4 0-432 193.6-432 432s193.6 432 432 432 432-193.6 432-432-193.6-432-432-432z"  /><path d="M619.2 665.6H404.8c-32 0-57.6-25.6-57.6-57.6V406.4c0-32 25.6-57.6 57.6-57.6h216c32 0 57.6 25.6 57.6 57.6V608c0 30.4-25.6 57.6-59.2 57.6z"  /><path d="M619.2 681.6H404.8c-41.6 0-73.6-33.6-73.6-73.6V406.4c0-41.6 33.6-73.6 73.6-73.6h216c41.6 0 73.6 33.6 73.6 73.6V608c0 40-33.6 73.6-75.2 73.6zM404.8 363.2c-24 0-41.6 19.2-41.6 41.6v201.6c0 24 19.2 41.6 41.6 41.6h216c24 0 41.6-19.2 41.6-41.6V406.4c0-24-19.2-41.6-41.6-41.6H404.8z"  /></svg>