<?xml version="1.0" standalone="no"?><!DOCTYPE svg PUBLIC "-//W3C//DTD SVG 1.1//EN" "http://www.w3.org/Graphics/SVG/1.1/DTD/svg11.dtd"><svg class="icon" width="200px" height="200.00px" viewBox="0 0 1024 1024" version="1.1" xmlns="http://www.w3.org/2000/svg"><path d="M450 219.2L287.4 378.9H119.2c-26.3 0-47.9 21.9-47.9 48.3v290.6c0 26.7 21.6 48.3 47.9 48.3h168.2l162.3 159.7c19 18.6 34.4 12.1 34.4-14.6V233.8c-0.1-26.7-15.4-33.3-34.1-14.6z" fill="#FFF433" /><path d="M442.9 98.2L280.3 258H112.1c-26.3 0-47.9 21.9-47.9 48.3v290.6c0 26.7 21.6 48.3 47.9 48.3h168.2l162.3 159.7c19 18.6 34.4 12.1 34.4-14.6V112.8c-0.1-26.7-15.4-33.2-34.1-14.6z m-14.2 619.6l-122.5-121H112.5V306.2h193.8l122.5-121v532.6zM596.8 88.7c-13.5 0-24.1 11-24.1 24.1 0 13.5 11 24.1 24.1 24.1 173.6 0 314.7 141.1 314.7 314.7S770.4 766.4 596.8 766.4c-13.5 0-24.1 11-24.1 24.1 0 13.5 11 24.1 24.1 24.1 200.3 0 363-163 363-363 0.1-199.9-163-362.9-363-362.9z m0 0" fill="#76569A" /><path d="M596.8 572.7c-13.5 0-24.1 11-24.1 24.1s11 24.1 24.1 24.1c93.6 0 169.6-76 169.6-169.6s-76-169.6-169.6-169.6c-13.5 0-24.1 11-24.1 24.1 0 13.5 11 24.1 24.1 24.1 66.9 0 121 54.1 121 121 0 67-54.4 121.8-121 121.8z m0 0" fill="#76569A" /></svg>